<?xml version="1.0" encoding="UTF-8" standalone="no"?>
<!DOCTYPE svg PUBLIC "-//W3C//DTD SVG 1.1//EN" "http://www.w3.org/Graphics/SVG/1.1/DTD/svg11.dtd">
<svg width="100%" height="100%" viewBox="0 0 2000 2000" version="1.1" xmlns="http://www.w3.org/2000/svg" xmlns:xlink="http://www.w3.org/1999/xlink" xml:space="preserve" xmlns:serif="http://www.serif.com/" style="fill-rule:evenodd;clip-rule:evenodd;stroke-linejoin:round;stroke-miterlimit:2;">
    <g transform="matrix(1,0,0,1,-2505,0)">
        <g id="Artboard-2" serif:id="Artboard 2" transform="matrix(1,0,0,1,2505,0)">
            <rect x="0" y="0" width="2000" height="2000" style="fill:none;"/>
            <clipPath id="_clip1">
                <rect x="0" y="0" width="2000" height="2000"/>
            </clipPath>
            <g clip-path="url(#_clip1)">
                <path d="M2000,1000C2000,447.715 1552.29,0 1000,0C1000,0 1000,0 1000,0C447.715,0 0,447.715 0,1000C0,1000 0,1000 0,1000C0,1552.29 447.715,2000 1000,2000C1000,2000 1000,2000 1000,2000C1552.29,2000 2000,1552.29 2000,1000L2000,1000Z" style="fill:url(#_Linear2);"/>
                <clipPath id="_clip3">
                    <path d="M2000,1000C2000,447.715 1552.29,0 1000,0C1000,0 1000,0 1000,0C447.715,0 0,447.715 0,1000C0,1000 0,1000 0,1000C0,1552.29 447.715,2000 1000,2000C1000,2000 1000,2000 1000,2000C1552.29,2000 2000,1552.29 2000,1000L2000,1000Z"/>
                </clipPath>
                <g clip-path="url(#_clip3)">
                    <g transform="matrix(0.529755,0.529755,-0.176585,0.176585,735.123,558.538)">
                        <rect x="0" y="1000" width="1000" height="1000" style="fill:white;"/>
                    </g>
                    <g transform="matrix(0.176585,0.176585,-0.529755,0.529755,1971.22,28.7833)">
                        <rect x="0" y="1000" width="1000" height="1000" style="fill:rgb(255,1,152);"/>
                    </g>
                </g>
            </g>
        </g>
    </g>
    <defs>
        <linearGradient id="_Linear2" x1="0" y1="0" x2="1" y2="0" gradientUnits="userSpaceOnUse" gradientTransform="matrix(1.22465e-13,-2000,2000,1.22465e-13,1000,2000)"><stop offset="0" style="stop-color:rgb(24,26,64);stop-opacity:1"/><stop offset="1" style="stop-color:rgb(7,5,19);stop-opacity:1"/></linearGradient>
    </defs>
</svg>
