<?xml version="1.0" encoding="UTF-8" standalone="no"?>
<svg
   xmlns:dc="http://purl.org/dc/elements/1.1/"
   xmlns:cc="http://creativecommons.org/ns#"
   xmlns:rdf="http://www.w3.org/1999/02/22-rdf-syntax-ns#"
   xmlns:svg="http://www.w3.org/2000/svg"
   xmlns="http://www.w3.org/2000/svg"
   xmlns:xlink="http://www.w3.org/1999/xlink"
   xmlns:sodipodi="http://sodipodi.sourceforge.net/DTD/sodipodi-0.dtd"
   xmlns:inkscape="http://www.inkscape.org/namespaces/inkscape"
   width="23700.000000000004"
   height="15000"
   version="1.1"
   id="svg4341"
   sodipodi:docname="verification.svg"
   inkscape:version="0.92.3 (2405546, 2018-03-11)">
  <metadata
     id="metadata4345">
    <rdf:RDF>
      <cc:Work
         rdf:about="">
        <dc:format>image/svg+xml</dc:format>
        <dc:type
           rdf:resource="http://purl.org/dc/dcmitype/StillImage" />
      </cc:Work>
    </rdf:RDF>
  </metadata>
  <sodipodi:namedview
     pagecolor="#ffffff"
     bordercolor="#666666"
     borderopacity="1"
     objecttolerance="10"
     gridtolerance="10"
     guidetolerance="10"
     inkscape:pageopacity="0"
     inkscape:pageshadow="2"
     inkscape:window-width="1366"
     inkscape:window-height="713"
     id="namedview4343"
     showgrid="false"
     inkscape:zoom="0.0336"
     inkscape:cx="8901.0988"
     inkscape:cy="7719.5993"
     inkscape:window-x="0"
     inkscape:window-y="28"
     inkscape:window-maximized="1"
     inkscape:current-layer="Layer_x0020_1" />
  <defs
     id="defs4051">
    <style
       type="text/css"
       id="style4049"><![CDATA[
    .fil0 {fill:#322F2C}
    .fil21 {fill:#34302F}
    .fil7 {fill:#3E3936}
    .fil22 {fill:#494141}
    .fil14 {fill:#4AB065}
    .fil5 {fill:#4C4643}
    .fil13 {fill:#504C4B}
    .fil15 {fill:#8A8889}
    .fil23 {fill:#A09F9F}
    .fil20 {fill:#B2B1B3}
    .fil18 {fill:#B48B5F}
    .fil12 {fill:#B5804E}
    .fil19 {fill:#C4A17C}
    .fil10 {fill:#C68D56}
    .fil11 {fill:#D8D6D7}
    .fil8 {fill:#DCDADA}
    .fil4 {fill:#E1DED9}
    .fil16 {fill:#E9522A}
    .fil6 {fill:#EEEDEE}
    .fil25 {fill:#EFF1F3}
    .fil17 {fill:#F5F5E3}
    .fil9 {fill:#F6F7F7}
    .fil24 {fill:#F8F8F9}
    .fil1 {fill:#FEFEFE}
    .fil2 {fill:#9D9E9E}
    .fil3 {fill:#C5C6C6}
    .fil27 {fill:#8A8889;fill-rule:nonzero}
    .fil26 {fill:#FEFEFE;fill-rule:nonzero}
   ]]></style>
  </defs>
  <g
     id="g4056">
    <title
       id="title4053">background</title>
    <rect
       fill="none"
       id="canvas_background"
       height="402"
       width="582"
       y="-1"
       x="-1" />
  </g>
  <g
     id="g4339">
    <title
       id="title4058">Layer 1</title>
    <g
       id="Layer_x0020_1">
      <metadata
         transform="translate(0,6.667205810546875) "
         id="CorelCorpID_0Corel-Layer" />
      <polygon
         id="svg_1"
         points="17762,6322.667205810547 17608,6456.667205810547 17489,5827.667205810547 18100,6106.667205810547 17914,6192.667205810547 18101,6417.667205810547 17941,6540.667205810547 "
         class="fil0" />
      <path
         id="svg_2"
         d="m17468,5801.667206l11,57l109,575l10,52l40,-35l122,-106l160,194l19,23l23,-18l136,-105l25,-19l-20,-24l-164,-198l138,-64l60,-28l-60,-27l-554,-253l-53,-24l-2,0zm43,52l554,253l-174,80l189,228l-136,105l-179,-219l-145,127l-109,-575l0,1z"
         class="fil1" />
      <path
         id="svg_3"
         d="m18960,9896.667206c-44,-63 -245,-113 -449,-113l-12571,0c-204,0 -405,50 -449,113l-2299,3145c-68,97 76,542 323,542l17420,0c247,0 392,-444 323,-542l-2299,-3145l1,0z"
         class="fil2" />
      <path
         id="svg_4"
         d="m18960,9896.667206c-44,-63 -245,-113 -449,-113l-12571,0c-204,0 -405,50 -449,113l-2299,3145c-68,97 76,178 323,178l17420,0c247,0 392,-80 323,-178l-2299,-3145l1,0z"
         class="fil3" />
      <path
         id="svg_5"
         d="m18424,9858.667206l-1685,0l-16,-34l1711,0c54,0 104,-14 147,-40c51,3 101,9 146,17c-55,34 -168,57 -303,57z"
         class="fil4" />
      <path
         id="svg_6"
         d="m16704,9783.667206l-9192,0l-41,83c-10,21 37,38 106,38l9060,0c69,0 117,-17 107,-38l-39,-83l-1,0z"
         class="fil5" />
      <polygon
         id="svg_7"
         points="6247,10009.667205810547 5257,11621.667205810547 19196,11621.667205810547 18205,10009.667205810547 "
         class="fil5" />
      <polygon
         id="svg_8"
         points="5461,11288.667205810547 5453,11302.667205810547 18999,11302.667205810547 18991,11288.667205810547 "
         class="fil6" />
      <polygon
         id="svg_9"
         points="5450,11269.667205810547 5418,11321.667205810547 19034,11321.667205810547 19002,11269.667205810547 "
         class="fil6" />
      <polygon
         id="svg_10"
         points="5650,10981.667205810547 5642,10994.667205810547 18811,10994.667205810547 18803,10981.667205810547 "
         class="fil6" />
      <polygon
         id="svg_11"
         points="5639,10962.667205810547 5607,11014.667205810547 18846,11014.667205810547 18814,10962.667205810547 "
         class="fil6" />
      <polygon
         id="svg_12"
         points="5828,10691.667205810547 5820,10704.667205810547 18632,10704.667205810547 18625,10691.667205810547 "
         class="fil6" />
      <polygon
         id="svg_13"
         points="5817,10672.667205810547 5785,10723.667205810547 18667,10723.667205810547 18635,10672.667205810547 "
         class="fil6" />
      <polygon
         id="svg_14"
         points="5997,10417.667205810547 5989,10428.667205810547 18463,10428.667205810547 18456,10417.667205810547 "
         class="fil6" />
      <polygon
         id="svg_15"
         points="5986,10397.667205810547 5955,10448.667205810547 18498,10448.667205810547 18467,10397.667205810547 "
         class="fil6" />
      <polygon
         id="svg_16"
         points="6157,10156.667205810547 6150,10167.667205810547 18302,10167.667205810547 18296,10156.667205810547 "
         class="fil6" />
      <polygon
         id="svg_17"
         points="6146,10137.667205810547 6115,10187.667205810547 18337,10187.667205810547 18307,10137.667205810547 "
         class="fil6" />
      <polygon
         id="svg_18"
         points="17496,10009.667205810547 17578,10162.667205810547 17617,10162.667205810547 17534,10009.667205810547 "
         class="fil6" />
      <polygon
         id="svg_19"
         points="17463,9990.667205810547 17566,10181.667205810547 17650,10181.667205810547 17546,9990.667205810547 "
         class="fil6" />
      <polygon
         id="svg_20"
         points="16791,10009.667205810547 16863,10162.667205810547 16902,10162.667205810547 16829,10009.667205810547 "
         class="fil6" />
      <polygon
         id="svg_21"
         points="16760,9990.667205810547 16850,10181.667205810547 16932,10181.667205810547 16842,9990.667205810547 "
         class="fil6" />
      <polygon
         id="svg_22"
         points="16087,10009.667205810547 16147,10162.667205810547 16186,10162.667205810547 16125,10009.667205810547 "
         class="fil6" />
      <polygon
         id="svg_23"
         points="16058,9990.667205810547 16134,10181.667205810547 16215,10181.667205810547 16138,9990.667205810547 "
         class="fil6" />
      <polygon
         id="svg_24"
         points="15382,10009.667205810547 15432,10162.667205810547 15471,10162.667205810547 15421,10009.667205810547 "
         class="fil6" />
      <polygon
         id="svg_25"
         points="15355,9990.667205810547 15417,10181.667205810547 15497,10181.667205810547 15435,9990.667205810547 "
         class="fil6" />
      <polygon
         id="svg_26"
         points="14678,10009.667205810547 14716,10162.667205810547 14755,10162.667205810547 14716,10009.667205810547 "
         class="fil6" />
      <polygon
         id="svg_27"
         points="14653,9990.667205810547 14701,10181.667205810547 14780,10181.667205810547 14731,9990.667205810547 "
         class="fil6" />
      <polygon
         id="svg_28"
         points="13973,10009.667205810547 14001,10162.667205810547 14040,10162.667205810547 14012,10009.667205810547 "
         class="fil6" />
      <polygon
         id="svg_29"
         points="13950,9990.667205810547 13984,10181.667205810547 14063,10181.667205810547 14028,9990.667205810547 "
         class="fil6" />
      <polygon
         id="svg_30"
         points="13269,10009.667205810547 13285,10162.667205810547 13324,10162.667205810547 13307,10009.667205810547 "
         class="fil6" />
      <polygon
         id="svg_31"
         points="13247,9990.667205810547 13268,10181.667205810547 13346,10181.667205810547 13325,9990.667205810547 "
         class="fil6" />
      <polygon
         id="svg_32"
         points="12564,10009.667205810547 12570,10162.667205810547 12609,10162.667205810547 12603,10009.667205810547 "
         class="fil6" />
      <polygon
         id="svg_33"
         points="12544,9990.667205810547 12551,10181.667205810547 12629,10181.667205810547 12621,9990.667205810547 "
         class="fil6" />
      <polygon
         id="svg_34"
         points="11854,10162.667205810547 11893,10162.667205810547 11898,10009.667205810547 11860,10009.667205810547 "
         class="fil6" />
      <polygon
         id="svg_35"
         points="11834,10181.667205810547 11912,10181.667205810547 11918,9990.667205810547 11841,9990.667205810547 "
         class="fil6" />
      <polygon
         id="svg_36"
         points="11139,10162.667205810547 11178,10162.667205810547 11194,10009.667205810547 11155,10009.667205810547 "
         class="fil6" />
      <polygon
         id="svg_37"
         points="11117,10181.667205810547 11195,10181.667205810547 11215,9990.667205810547 11138,9990.667205810547 "
         class="fil6" />
      <polygon
         id="svg_38"
         points="10423,10162.667205810547 10462,10162.667205810547 10489,10009.667205810547 10451,10009.667205810547 "
         class="fil6" />
      <polygon
         id="svg_39"
         points="10400,10181.667205810547 10478,10181.667205810547 10513,9990.667205810547 10435,9990.667205810547 "
         class="fil6" />
      <polygon
         id="svg_40"
         points="9708,10162.667205810547 9747,10162.667205810547 9785,10009.667205810547 9746,10009.667205810547 "
         class="fil6" />
      <polygon
         id="svg_41"
         points="9682,10181.667205810547 9762,10181.667205810547 9810,9990.667205810547 9731,9990.667205810547 "
         class="fil6" />
      <polygon
         id="svg_42"
         points="8992,10162.667205810547 9031,10162.667205810547 9080,10009.667205810547 9042,10009.667205810547 "
         class="fil6" />
      <polygon
         id="svg_43"
         points="8965,10181.667205810547 9045,10181.667205810547 9107,9990.667205810547 9028,9990.667205810547 "
         class="fil6" />
      <polygon
         id="svg_44"
         points="8277,10162.667205810547 8316,10162.667205810547 8376,10009.667205810547 8337,10009.667205810547 "
         class="fil6" />
      <polygon
         id="svg_45"
         points="8248,10181.667205810547 8329,10181.667205810547 8405,9990.667205810547 8324,9990.667205810547 "
         class="fil6" />
      <polygon
         id="svg_46"
         points="7561,10162.667205810547 7600,10162.667205810547 7671,10009.667205810547 7633,10009.667205810547 "
         class="fil6" />
      <polygon
         id="svg_47"
         points="7530,10181.667205810547 7613,10181.667205810547 7702,9990.667205810547 7621,9990.667205810547 "
         class="fil6" />
      <polygon
         id="svg_48"
         points="6846,10162.667205810547 6885,10162.667205810547 6967,10009.667205810547 6928,10009.667205810547 "
         class="fil6" />
      <polygon
         id="svg_49"
         points="6813,10181.667205810547 6896,10181.667205810547 7000,9990.667205810547 6917,9990.667205810547 "
         class="fil6" />
      <polygon
         id="svg_50"
         points="16949,10162.667205810547 17073,10423.667205810547 17109,10423.667205810547 16984,10162.667205810547 "
         class="fil6" />
      <polygon
         id="svg_51"
         points="16918,10142.667205810547 17061,10442.667205810547 17140,10442.667205810547 16996,10142.667205810547 "
         class="fil6" />
      <polygon
         id="svg_52"
         points="16107,10162.667205810547 16209,10423.667205810547 16245,10423.667205810547 16142,10162.667205810547 "
         class="fil6" />
      <polygon
         id="svg_53"
         points="16078,10142.667205810547 16196,10442.667205810547 16274,10442.667205810547 16155,10142.667205810547 "
         class="fil6" />
      <polygon
         id="svg_54"
         points="15265,10162.667205810547 15345,10423.667205810547 15381,10423.667205810547 15300,10162.667205810547 "
         class="fil6" />
      <polygon
         id="svg_55"
         points="15239,10142.667205810547 15331,10442.667205810547 15408,10442.667205810547 15315,10142.667205810547 "
         class="fil6" />
      <polygon
         id="svg_56"
         points="14423,10162.667205810547 14481,10423.667205810547 14517,10423.667205810547 14458,10162.667205810547 "
         class="fil6" />
      <polygon
         id="svg_57"
         points="14399,10142.667205810547 14466,10442.667205810547 14542,10442.667205810547 14474,10142.667205810547 "
         class="fil6" />
      <polygon
         id="svg_58"
         points="13582,10162.667205810547 13617,10423.667205810547 13653,10423.667205810547 13617,10162.667205810547 "
         class="fil6" />
      <polygon
         id="svg_59"
         points="13559,10142.667205810547 13600,10442.667205810547 13676,10442.667205810547 13634,10142.667205810547 "
         class="fil6" />
      <polygon
         id="svg_60"
         points="12740,10162.667205810547 12753,10423.667205810547 12789,10423.667205810547 12775,10162.667205810547 "
         class="fil6" />
      <polygon
         id="svg_61"
         points="12719,10142.667205810547 12735,10442.667205810547 12810,10442.667205810547 12793,10142.667205810547 "
         class="fil6" />
      <polygon
         id="svg_62"
         points="11889,10423.667205810547 11925,10423.667205810547 11933,10162.667205810547 11898,10162.667205810547 "
         class="fil6" />
      <polygon
         id="svg_63"
         points="11869,10442.667205810547 11944,10442.667205810547 11953,10142.667205810547 11879,10142.667205810547 "
         class="fil6" />
      <polygon
         id="svg_64"
         points="11026,10423.667205810547 11061,10423.667205810547 11091,10162.667205810547 11056,10162.667205810547 "
         class="fil6" />
      <polygon
         id="svg_65"
         points="11004,10442.667205810547 11079,10442.667205810547 11113,10142.667205810547 11039,10142.667205810547 "
         class="fil6" />
      <polygon
         id="svg_66"
         points="10162,10423.667205810547 10197,10423.667205810547 10250,10162.667205810547 10215,10162.667205810547 "
         class="fil6" />
      <polygon
         id="svg_67"
         points="10138,10442.667205810547 10214,10442.667205810547 10273,10142.667205810547 10199,10142.667205810547 "
         class="fil6" />
      <polygon
         id="svg_68"
         points="9298,10423.667205810547 9334,10423.667205810547 9408,10162.667205810547 9373,10162.667205810547 "
         class="fil6" />
      <polygon
         id="svg_69"
         points="9272,10442.667205810547 9348,10442.667205810547 9434,10142.667205810547 9358,10142.667205810547 "
         class="fil6" />
      <polygon
         id="svg_70"
         points="8434,10423.667205810547 8470,10423.667205810547 8566,10162.667205810547 8531,10162.667205810547 "
         class="fil6" />
      <polygon
         id="svg_71"
         points="8405,10442.667205810547 8483,10442.667205810547 8594,10142.667205810547 8518,10142.667205810547 "
         class="fil6" />
      <polygon
         id="svg_72"
         points="7570,10423.667205810547 7606,10423.667205810547 7724,10162.667205810547 7689,10162.667205810547 "
         class="fil6" />
      <polygon
         id="svg_73"
         points="7539,10442.667205810547 7618,10442.667205810547 7755,10142.667205810547 7677,10142.667205810547 "
         class="fil6" />
      <polygon
         id="svg_74"
         points="6706,10423.667205810547 6742,10423.667205810547 6883,10162.667205810547 6848,10162.667205810547 "
         class="fil6" />
      <polygon
         id="svg_75"
         points="6673,10442.667205810547 6753,10442.667205810547 6915,10142.667205810547 6836,10142.667205810547 "
         class="fil6" />
      <polygon
         id="svg_76"
         points="17343,10423.667205810547 17482,10698.667205810547 17519,10698.667205810547 17379,10423.667205810547 "
         class="fil6" />
      <polygon
         id="svg_77"
         points="17312,10403.667205810547 17470,10717.667205810547 17551,10717.667205810547 17391,10403.667205810547 "
         class="fil6" />
      <polygon
         id="svg_78"
         points="16479,10423.667205810547 16595,10698.667205810547 16632,10698.667205810547 16515,10423.667205810547 "
         class="fil6" />
      <polygon
         id="svg_79"
         points="16450,10403.667205810547 16582,10717.667205810547 16661,10717.667205810547 16528,10403.667205810547 "
         class="fil6" />
      <polygon
         id="svg_80"
         points="15615,10423.667205810547 15707,10698.667205810547 15744,10698.667205810547 15651,10423.667205810547 "
         class="fil6" />
      <polygon
         id="svg_81"
         points="15588,10403.667205810547 15693,10717.667205810547 15771,10717.667205810547 15665,10403.667205810547 "
         class="fil6" />
      <polygon
         id="svg_82"
         points="14751,10423.667205810547 14820,10698.667205810547 14857,10698.667205810547 14787,10423.667205810547 "
         class="fil6" />
      <polygon
         id="svg_83"
         points="14726,10403.667205810547 14805,10717.667205810547 14882,10717.667205810547 14803,10403.667205810547 "
         class="fil6" />
      <polygon
         id="svg_84"
         points="13887,10423.667205810547 13932,10698.667205810547 13969,10698.667205810547 13923,10423.667205810547 "
         class="fil6" />
      <polygon
         id="svg_85"
         points="13864,10403.667205810547 13916,10717.667205810547 13992,10717.667205810547 13940,10403.667205810547 "
         class="fil6" />
      <polygon
         id="svg_86"
         points="13023,10423.667205810547 13045,10698.667205810547 13082,10698.667205810547 13059,10423.667205810547 "
         class="fil6" />
      <polygon
         id="svg_87"
         points="13002,10403.667205810547 13027,10717.667205810547 13103,10717.667205810547 13077,10403.667205810547 "
         class="fil6" />
      <polygon
         id="svg_88"
         points="12158,10698.667205810547 12195,10698.667205810547 12195,10423.667205810547 12159,10423.667205810547 "
         class="fil6" />
      <polygon
         id="svg_89"
         points="12138,10717.667205810547 12214,10717.667205810547 12215,10403.667205810547 12140,10403.667205810547 "
         class="fil6" />
      <polygon
         id="svg_90"
         points="11270,10698.667205810547 11307,10698.667205810547 11331,10423.667205810547 11295,10423.667205810547 "
         class="fil6" />
      <polygon
         id="svg_91"
         points="11249,10717.667205810547 11325,10717.667205810547 11353,10403.667205810547 11278,10403.667205810547 "
         class="fil6" />
      <polygon
         id="svg_92"
         points="10383,10698.667205810547 10420,10698.667205810547 10468,10423.667205810547 10431,10423.667205810547 "
         class="fil6" />
      <polygon
         id="svg_93"
         points="10360,10717.667205810547 10436,10717.667205810547 10491,10403.667205810547 10415,10403.667205810547 "
         class="fil6" />
      <polygon
         id="svg_94"
         points="9495,10698.667205810547 9532,10698.667205810547 9604,10423.667205810547 9568,10423.667205810547 "
         class="fil6" />
      <polygon
         id="svg_95"
         points="9470,10717.667205810547 9548,10717.667205810547 9629,10403.667205810547 9552,10403.667205810547 "
         class="fil6" />
      <polygon
         id="svg_96"
         points="8608,10698.667205810547 8645,10698.667205810547 8740,10423.667205810547 8704,10423.667205810547 "
         class="fil6" />
      <polygon
         id="svg_97"
         points="8581,10717.667205810547 8659,10717.667205810547 8767,10403.667205810547 8690,10403.667205810547 "
         class="fil6" />
      <polygon
         id="svg_98"
         points="7721,10698.667205810547 7758,10698.667205810547 7876,10423.667205810547 7840,10423.667205810547 "
         class="fil6" />
      <polygon
         id="svg_99"
         points="7691,10717.667205810547 7770,10717.667205810547 7905,10403.667205810547 7827,10403.667205810547 "
         class="fil6" />
      <polygon
         id="svg_100"
         points="6833,10698.667205810547 6870,10698.667205810547 7012,10423.667205810547 6976,10423.667205810547 "
         class="fil6" />
      <polygon
         id="svg_101"
         points="6801,10717.667205810547 6882,10717.667205810547 7044,10403.667205810547 6964,10403.667205810547 "
         class="fil6" />
      <polygon
         id="svg_102"
         points="17057,10698.667205810547 17191,10988.667205810547 17229,10988.667205810547 17094,10698.667205810547 "
         class="fil6" />
      <polygon
         id="svg_103"
         points="17026,10678.667205810547 17179,11007.667205810547 17260,11007.667205810547 17106,10678.667205810547 "
         class="fil6" />
      <polygon
         id="svg_104"
         points="16169,10698.667205810547 16279,10988.667205810547 16317,10988.667205810547 16206,10698.667205810547 "
         class="fil6" />
      <polygon
         id="svg_105"
         points="16141,10678.667205810547 16266,11007.667205810547 16346,11007.667205810547 16220,10678.667205810547 "
         class="fil6" />
      <polygon
         id="svg_106"
         points="15282,10698.667205810547 15367,10988.667205810547 15405,10988.667205810547 15319,10698.667205810547 "
         class="fil6" />
      <polygon
         id="svg_107"
         points="15256,10678.667205810547 15353,11007.667205810547 15431,11007.667205810547 15334,10678.667205810547 "
         class="fil6" />
      <polygon
         id="svg_108"
         points="14395,10698.667205810547 14455,10988.667205810547 14493,10988.667205810547 14432,10698.667205810547 "
         class="fil6" />
      <polygon
         id="svg_109"
         points="14371,10678.667205810547 14439,11007.667205810547 14517,11007.667205810547 14447,10678.667205810547 "
         class="fil6" />
      <polygon
         id="svg_110"
         points="13507,10698.667205810547 13543,10988.667205810547 13581,10988.667205810547 13544,10698.667205810547 "
         class="fil6" />
      <polygon
         id="svg_111"
         points="13485,10678.667205810547 13526,11007.667205810547 13603,11007.667205810547 13561,10678.667205810547 "
         class="fil6" />
      <polygon
         id="svg_112"
         points="12620,10698.667205810547 12631,10988.667205810547 12669,10988.667205810547 12657,10698.667205810547 "
         class="fil6" />
      <polygon
         id="svg_113"
         points="12600,10678.667205810547 12612,11007.667205810547 12689,11007.667205810547 12676,10678.667205810547 "
         class="fil6" />
      <polygon
         id="svg_114"
         points="11719,10988.667205810547 11757,10988.667205810547 11769,10698.667205810547 11732,10698.667205810547 "
         class="fil6" />
      <polygon
         id="svg_115"
         points="11698,11007.667205810547 11775,11007.667205810547 11790,10678.667205810547 11714,10678.667205810547 "
         class="fil6" />
      <polygon
         id="svg_116"
         points="10807,10988.667205810547 10845,10988.667205810547 10882,10698.667205810547 10845,10698.667205810547 "
         class="fil6" />
      <polygon
         id="svg_117"
         points="10784,11007.667205810547 10862,11007.667205810547 10904,10678.667205810547 10828,10678.667205810547 "
         class="fil6" />
      <polygon
         id="svg_118"
         points="9894,10988.667205810547 9932,10988.667205810547 9995,10698.667205810547 9958,10698.667205810547 "
         class="fil6" />
      <polygon
         id="svg_119"
         points="9870,11007.667205810547 9948,11007.667205810547 10019,10678.667205810547 9942,10678.667205810547 "
         class="fil6" />
      <polygon
         id="svg_120"
         points="8982,10988.667205810547 9020,10988.667205810547 9107,10698.667205810547 9070,10698.667205810547 "
         class="fil6" />
      <polygon
         id="svg_121"
         points="8956,11007.667205810547 9035,11007.667205810547 9133,10678.667205810547 9056,10678.667205810547 "
         class="fil6" />
      <polygon
         id="svg_122"
         points="8070,10988.667205810547 8108,10988.667205810547 8220,10698.667205810547 8183,10698.667205810547 "
         class="fil6" />
      <polygon
         id="svg_123"
         points="8042,11007.667205810547 8122,11007.667205810547 8248,10678.667205810547 8169,10678.667205810547 "
         class="fil6" />
      <polygon
         id="svg_124"
         points="7158,10988.667205810547 7196,10988.667205810547 7332,10698.667205810547 7295,10698.667205810547 "
         class="fil6" />
      <polygon
         id="svg_125"
         points="7127,11007.667205810547 7208,11007.667205810547 7363,10678.667205810547 7283,10678.667205810547 "
         class="fil6" />
      <polygon
         id="svg_126"
         points="16622,10989.667205810547 16748,11296.667205810547 16787,11296.667205810547 16660,10989.667205810547 "
         class="fil6" />
      <polygon
         id="svg_127"
         points="16593,10969.667205810547 16735,11315.667205810547 16816,11315.667205810547 16673,10969.667205810547 "
         class="fil6" />
      <polygon
         id="svg_128"
         points="15709,10989.667205810547 15809,11296.667205810547 15848,11296.667205810547 15748,10989.667205810547 "
         class="fil6" />
      <polygon
         id="svg_129"
         points="15683,10969.667205810547 15795,11315.667205810547 15875,11315.667205810547 15762,10969.667205810547 "
         class="fil6" />
      <polygon
         id="svg_130"
         points="14797,10989.667205810547 14871,11296.667205810547 14910,11296.667205810547 14835,10989.667205810547 "
         class="fil6" />
      <polygon
         id="svg_131"
         points="14773,10969.667205810547 14856,11315.667205810547 14935,11315.667205810547 14851,10969.667205810547 "
         class="fil6" />
      <polygon
         id="svg_132"
         points="13885,10989.667205810547 13933,11296.667205810547 13972,11296.667205810547 13923,10989.667205810547 "
         class="fil6" />
      <polygon
         id="svg_133"
         points="13862,10969.667205810547 13916,11315.667205810547 13995,11315.667205810547 13940,10969.667205810547 "
         class="fil6" />
      <polygon
         id="svg_134"
         points="12973,10989.667205810547 12994,11296.667205810547 13033,11296.667205810547 13011,10989.667205810547 "
         class="fil6" />
      <polygon
         id="svg_135"
         points="12952,10969.667205810547 12976,11315.667205810547 13054,11315.667205810547 13029,10969.667205810547 "
         class="fil6" />
      <polygon
         id="svg_136"
         points="12056,11296.667205810547 12095,11296.667205810547 12099,10989.667205810547 12061,10989.667205810547 "
         class="fil6" />
      <polygon
         id="svg_137"
         points="12036,11315.667205810547 12114,11315.667205810547 12118,10969.667205810547 12042,10969.667205810547 "
         class="fil6" />
      <polygon
         id="svg_138"
         points="11118,11296.667205810547 11157,11296.667205810547 11187,10989.667205810547 11149,10989.667205810547 "
         class="fil6" />
      <polygon
         id="svg_139"
         points="11096,11315.667205810547 11174,11315.667205810547 11208,10969.667205810547 11131,10969.667205810547 "
         class="fil6" />
      <polygon
         id="svg_140"
         points="10179,11296.667205810547 10218,11296.667205810547 10274,10989.667205810547 10236,10989.667205810547 "
         class="fil6" />
      <polygon
         id="svg_141"
         points="10156,11315.667205810547 10235,11315.667205810547 10298,10969.667205810547 10220,10969.667205810547 "
         class="fil6" />
      <polygon
         id="svg_142"
         points="9241,11296.667205810547 9280,11296.667205810547 9362,10989.667205810547 9324,10989.667205810547 "
         class="fil6" />
      <polygon
         id="svg_143"
         points="9215,11315.667205810547 9295,11315.667205810547 9388,10969.667205810547 9309,10969.667205810547 "
         class="fil6" />
      <polygon
         id="svg_144"
         points="8303,11296.667205810547 8342,11296.667205810547 8450,10989.667205810547 8412,10989.667205810547 "
         class="fil6" />
      <polygon
         id="svg_145"
         points="8275,11315.667205810547 8356,11315.667205810547 8478,10969.667205810547 8398,10969.667205810547 "
         class="fil6" />
      <polygon
         id="svg_146"
         points="7364,11296.667205810547 7403,11296.667205810547 7538,10989.667205810547 7500,10989.667205810547 "
         class="fil6" />
      <polygon
         id="svg_147"
         points="7334,11315.667205810547 7416,11315.667205810547 7568,10969.667205810547 7487,10969.667205810547 "
         class="fil6" />
      <polygon
         id="svg_148"
         points="18018,11296.667205810547 18189,11621.667205810547 18230,11621.667205810547 18057,11296.667205810547 "
         class="fil6" />
      <polygon
         id="svg_149"
         points="17986,11276.667205810547 18177,11640.667205810547 18262,11640.667205810547 18069,11276.667205810547 "
         class="fil6" />
      <polygon
         id="svg_150"
         points="15820,11449.667205810547 15824,11463.667205810547 19099,11463.667205810547 19090,11449.667205810547 "
         class="fil6" />
      <polygon
         id="svg_151"
         points="15793,11429.667205810547 15810,11483.667205810547 19134,11483.667205810547 19101,11429.667205810547 "
         class="fil6" />
      <polygon
         id="svg_152"
         points="16885,11296.667205810547 17022,11621.667205810547 17062,11621.667205810547 16924,11296.667205810547 "
         class="fil6" />
      <polygon
         id="svg_153"
         points="16855,11276.667205810547 17009,11640.667205810547 17092,11640.667205810547 16937,11276.667205810547 "
         class="fil6" />
      <polygon
         id="svg_154"
         points="15751,11296.667205810547 15855,11621.667205810547 15895,11621.667205810547 15790,11296.667205810547 "
         class="fil6" />
      <polygon
         id="svg_155"
         points="15724,11276.667205810547 15840,11640.667205810547 15922,11640.667205810547 15804,11276.667205810547 "
         class="fil6" />
      <polygon
         id="svg_156"
         points="14812,11296.667205810547 14889,11621.667205810547 14929,11621.667205810547 14851,11296.667205810547 "
         class="fil6" />
      <polygon
         id="svg_157"
         points="14788,11276.667205810547 14873,11640.667205810547 14954,11640.667205810547 14867,11276.667205810547 "
         class="fil6" />
      <polygon
         id="svg_158"
         points="13874,11296.667205810547 13923,11621.667205810547 13963,11621.667205810547 13913,11296.667205810547 "
         class="fil6" />
      <path
         id="svg_159"
         d="m13939,11601.667206l-29,-196l30,196l-1,0zm-88,-325l54,364l80,0l-56,-364l-78,0z"
         class="fil6" />
      <polygon
         id="svg_160"
         points="9092,11621.667205810547 9133,11621.667205810547 9221,11296.667205810547 9182,11296.667205810547 "
         class="fil6" />
      <polygon
         id="svg_161"
         points="9067,11640.667205810547 9148,11640.667205810547 9247,11276.667205810547 9167,11276.667205810547 "
         class="fil6" />
      <polygon
         id="svg_162"
         points="8126,11621.667205810547 8167,11621.667205810547 8283,11296.667205810547 8244,11296.667205810547 "
         class="fil6" />
      <polygon
         id="svg_163"
         points="8099,11640.667205810547 8180,11640.667205810547 8311,11276.667205810547 8230,11276.667205810547 "
         class="fil6" />
      <polygon
         id="svg_164"
         points="7160,11621.667205810547 7201,11621.667205810547 7345,11296.667205810547 7306,11296.667205810547 "
         class="fil6" />
      <polygon
         id="svg_165"
         points="7130,11640.667205810547 7213,11640.667205810547 7375,11276.667205810547 7293,11276.667205810547 "
         class="fil6" />
      <polygon
         id="svg_166"
         points="6194,11621.667205810547 6235,11621.667205810547 6406,11296.667205810547 6367,11296.667205810547 "
         class="fil6" />
      <polygon
         id="svg_167"
         points="6162,11640.667205810547 6246,11640.667205810547 6439,11276.667205810547 6356,11276.667205810547 "
         class="fil6" />
      <path
         id="svg_168"
         d="m18062,1429.667206l-11660,0c-367,0 -664,294 -664,656l0,7449c0,161 130,291 291,291l12406,0c161,0 291,-130 291,-291l0,-7449c0,-362 -297,-656 -664,-656z"
         class="fil5" />
      <path
         id="svg_169"
         d="m12195,1844.667206c-54,0 -97,-43 -97,-97c0,-54 43,-97 97,-97c54,0 97,43 97,97c0,54 -43,97 -97,97z"
         class="fil7" />
      <polygon
         id="svg_170"
         points="6136,9669.667205810547 6136,2060.667205810547 18327,2060.667205810547 18327,9669.667205810547 "
         class="fil5" />
      <polygon
         id="svg_171"
         points="6161,9644.667205810547 18302,9644.667205810547 18302,2085.667205810547 6161,2085.667205810547 "
         class="fil1" />
      <path
         id="svg_172"
         d="m15678,9016.667206l-90,0l0,-6304l90,0l0,6304zm-6803,-5489c-28,-24 -58,-46 -90,-65l0,-750l90,0l0,815z"
         class="fil8" />
      <polygon
         id="svg_173"
         points="8875,9157.667205810547 15588,9157.667205810547 15588,2571.667205810547 8875,2571.667205810547 "
         class="fil9" />
      <polygon
         id="svg_174"
         points="15082,6201.667205810547 9381,6201.667205810547 9381,5288.667205810547 15082,5288.667205810547 "
         class="fil6" />
      <polygon
         id="svg_175"
         points="15082,7449.667205810547 9381,7449.667205810547 9381,6536.667205810547 15082,6536.667205810547 "
         class="fil6" />
      <path
         id="svg_176"
         d="m12232,4706.667206c-491,0 -890,-398 -890,-890c0,-491 398,-890 890,-890c491,0 890,398 890,890c0,491 -398,890 -890,890z"
         class="fil6" />
      <path
         id="svg_180"
         d="m12465,4154.667206c-39,-17 -70,-48 -83,-83c13,35 44,66 83,83l0,0zm-83,-83c0,-1 -1,-1 -1,-2c0,1 1,1 1,2l0,0zm-1,-2c0,0 0,0 0,-1c0,0 0,0 0,1zm0,-1c0,0 0,0 0,0c0,0 0,0 0,1l0,0l0,-1zm0,-1c0,-1 0,-1 -1,-2c0,1 0,1 1,2zm-1,-2c0,0 0,0 0,0c0,0 0,0 0,0l0,0zm0,-1c0,0 0,0 0,0c0,0 0,0 0,0l0,0zm0,-1c0,0 0,0 0,0c0,0 0,0 0,0l0,0zm0,-1c0,0 0,-1 0,-1c0,0 0,1 0,1zm0,-1c0,0 0,0 0,0c0,0 0,0 0,0l0,0zm0,-1c0,0 0,0 0,0c0,0 0,0 0,0l0,0zm0,-1c0,0 0,0 0,0c0,0 0,0 0,0l0,0zm0,-1c0,0 0,-1 0,-1c0,0 0,1 0,1l0,0zm0,-1c0,0 0,0 0,0c0,0 0,0 0,0zm0,-1c0,0 0,0 0,0c0,0 0,0 0,0l0,0zm0,-1c0,0 0,0 0,0c0,0 0,0 0,0zm0,-1c0,0 0,0 0,0c0,0 0,0 0,0zm0,-1c0,0 0,0 0,0c0,0 0,0 0,0l0,0zm0,-1c0,0 0,0 0,0c0,0 0,0 0,0l0,0zm0,-1c0,0 0,0 0,0c0,0 0,0 0,0zm0,-1c0,0 0,0 0,0c0,0 0,0 0,0l0,0zm0,-1c0,0 0,0 0,0c0,0 0,0 0,0zm0,-1c0,0 0,0 0,0c0,0 0,0 0,0zm0,-1c0,0 0,0 0,0c0,0 0,0 0,0zm0,-1c0,0 0,0 0,0c0,0 0,0 0,0l0,0zm0,-1c0,0 0,0 0,0c0,0 0,0 0,1l0,0l0,-1zm0,-1c0,0 0,0 0,0c0,0 0,0 0,0l0,0zm0,-1c0,0 0,0 0,0c0,0 0,0 0,0l0,0zm0,-1c0,0 0,0 0,0c0,0 0,0 0,0zm0,-1c0,0 0,0 0,0c0,0 0,0 0,0l0,0zm0,-1c0,0 0,0 0,0c0,0 0,0 0,0l0,0zm0,-1c0,0 0,0 0,0c0,0 0,0 0,0l0,0zm-289,0c0,0 0,0 0,0c1,-4 1,-9 1,-13c0,4 0,9 -1,13l0,0zm289,0c0,0 0,0 0,0c0,0 0,0 0,0zm0,-1c0,0 0,0 0,0c0,0 0,0 0,0zm0,-1c0,0 0,0 0,0c0,0 0,0 0,0l0,0zm0,-1c0,0 0,0 0,0c0,0 0,0 0,0zm0,-1c0,0 0,0 0,0c0,0 0,0 0,0l0,0zm0,-1c0,0 0,0 0,0c0,0 0,0 0,0l0,0zm0,-1c0,0 0,0 0,0c0,0 0,0 0,0l0,0zm0,-1c0,0 0,0 0,0c0,0 0,0 0,0l0,0zm0,-1c0,0 0,0 0,0c0,0 0,0 0,0zm0,-1c0,0 0,0 0,0c0,0 0,0 0,0l0,0zm0,-1c0,0 0,0 0,0c0,0 0,0 0,0l0,0zm0,-1c0,0 0,0 0,0c0,0 0,0 0,0l0,0zm0,-1c0,0 0,0 0,0c0,0 0,0 0,0zm0,-1c0,0 0,0 0,0c0,0 0,0 0,0l0,0zm0,-1c0,0 0,0 0,0c0,0 0,0 0,0l0,0zm0,-1c0,0 0,0 0,0c0,0 0,0 0,0zm0,-1c0,0 0,0 0,0c0,0 0,0 0,0l0,0zm0,-1c0,0 0,0 0,0c0,0 0,0 0,0zm0,-1c0,0 0,0 0,0c0,0 0,0 0,0l0,0zm-287,0c0,0 0,0 0,0c0,0 0,0 0,0z"
         class="fil11" />
      <path
         id="svg_182"
         d="m12833,4472.667206l-9,-100l-79,171c31,-22 60,-46 88,-71z"
         class="fil10" />
      <path
         id="svg_187"
         d="m13531,8414.667206c0,-133 0,-343 0,-476c0,-69 -56,-124 -125,-124l-2289,0c-69,0 -125,56 -125,125l0,476c0,69 56,125 125,125l2289,0c69,0 125,-55 125,-124l0,-2z"
         class="fil14"
         style="fill:#2196f3;fill-opacity:1" />
      <polygon
         id="svg_188"
         points="14166,6026.667205810547 14166,6026.667205810547 14166,5477.667205810547 10357,5477.667205810547 10357,6026.667205810547 "
         class="fil1" />
      <polygon
         id="svg_189"
         points="14166,7276.667205810547 14166,7276.667205810547 14166,6727.667205810547 10357,6727.667205810547 10357,7276.667205810547 "
         class="fil1" />
      <polygon
         id="svg_195"
         points="11499,7019.667205810547 11420,6996.667205810547 11435,6950.667205810547 11514,6982.667205810547 11509,6894.667205810547 11558,6894.667205810547 11553,6984.667205810547 11630,6953.667205810547 11645,6999.667205810547 11564,7022.667205810547 11617,7089.667205810547 11577,7118.667205810547 11531,7044.667205810547 11485,7116.667205810547 11444,7088.667205810547 "
         class="fil15" />
      <polygon
         id="svg_196"
         points="11865,7019.667205810547 11785,6996.667205810547 11800,6950.667205810547 11879,6982.667205810547 11874,6894.667205810547 11924,6894.667205810547 11919,6984.667205810547 11996,6953.667205810547 12011,6999.667205810547 11929,7022.667205810547 11983,7089.667205810547 11942,7118.667205810547 11896,7044.667205810547 11850,7116.667205810547 11810,7088.667205810547 "
         class="fil15" />
      <polygon
         id="svg_197"
         points="12230,7019.667205810547 12151,6996.667205810547 12166,6950.667205810547 12245,6982.667205810547 12239,6894.667205810547 12289,6894.667205810547 12284,6984.667205810547 12361,6953.667205810547 12376,6999.667205810547 12295,7022.667205810547 12348,7089.667205810547 12308,7118.667205810547 12262,7044.667205810547 12216,7116.667205810547 12175,7088.667205810547 "
         class="fil15" />
      <polygon
         id="svg_198"
         points="12596,7019.667205810547 12516,6996.667205810547 12531,6950.667205810547 12610,6982.667205810547 12605,6894.667205810547 12655,6894.667205810547 12650,6984.667205810547 12727,6953.667205810547 12742,6999.667205810547 12660,7022.667205810547 12714,7089.667205810547 12673,7118.667205810547 12627,7044.667205810547 12581,7116.667205810547 12541,7088.667205810547 "
         class="fil15" />
      <polygon
         id="svg_199"
         points="12961,7019.667205810547 12881,6996.667205810547 12896,6950.667205810547 12975,6982.667205810547 12970,6894.667205810547 13020,6894.667205810547 13015,6984.667205810547 13092,6953.667205810547 13107,6999.667205810547 13026,7022.667205810547 13079,7089.667205810547 13039,7118.667205810547 12993,7044.667205810547 12947,7116.667205810547 12906,7088.667205810547 "
         class="fil15" />
      <g
         stroke="null"
         id="svg_274">
        <g
           stroke="null"
           transform="matrix(1.3830165738480251,0,0,1.3832170641236632,-36941.07292476089,-8841.862409592914) "
           id="svg_263">
          <g
             stroke="null"
             id="svg_264">
            <use
               stroke="null"
               x="34915.272537"
               y="8508.875244"
               id="svg_265"
               fill="#ffffff"
               xlink:href="#svg_261" />
            <g
               stroke="null"
               id="svg_266">
              <use
                 stroke="#002cff"
                 x="34915.272537"
                 y="8508.875244"
                 id="svg_267"
                 stroke-width="45"
                 fill-opacity="0"
                 xlink:href="#svg_261" />
            </g>
          </g>
          <g
             stroke="null"
             id="svg_268">
            <use
               stroke="null"
               x="34915.272537"
               y="8508.875244"
               id="svg_269"
               fill="#183db0"
               xlink:href="#svg_260" />
          </g>
          <g
             stroke="null"
             id="svg_270">
            <use
               stroke="null"
               x="34915.272537"
               y="8508.875244"
               id="svg_271"
               fill="#2162f2"
               xlink:href="#svg_259" />
          </g>
          <g
             stroke="null"
             id="svg_272">
            <use
               stroke="null"
               x="34915.272537"
               y="8508.875244"
               id="svg_273"
               fill="#3a50dc"
               xlink:href="#svg_258" />
          </g>
        </g>
      </g>
      <path
         fill="#2196f3"
         id="svg_208"
         d="m12957,4419.667206c36,0 65,29 65,65c0,22 -11,41 -27,52l18,123l-118,0l22,-124c-15,-12 -25,-30 -25,-51c0,-36 29,-65 65,-65zm-217,243c0,33 27,61 61,61l313,0c33,0 61,-27 61,-61l0,-329l-434,0l0,329l-1,0z"
         class="fil16"
         style="fill:#2196f3;fill-opacity:1" />
      <path
         stroke="#1A333F"
         fill="#559E84"
         id="svg_209"
         d="m12957,4117.667206c-107,0 -195,102 -195,228l51,0c0,-114 49,-179 144,-179c95,0 143,65 143,179l51,0c0,-126 -87,-228 -195,-228l1,0z"
         class="fil16"
         style="fill:#2196f3;fill-opacity:1" />
      <path
         id="svg_210"
         d="m4802,6990.667206c-1,-13 -2,-25 -3,-38c1,13 2,26 3,38z"
         class="fil17" />
      <path
         id="svg_213"
         d="m8592,10435.667206c331,0 513,-235 513,-661l0,-5745c0,-365 -297,-661 -661,-661l-2439,0c-365,0 -661,297 -661,661l0,5745c0,365 297,661 661,661l2588,0l-1,0z"
         class="fil20" />
      <path
         id="svg_214"
         d="m8443,3433.667206l-2439,0c-329,0 -595,266 -595,595l0,5745c0,329 266,595 595,595l2588,0c329,0 446,-266 446,-595l0,-1864l0,-2473l0,-1407c0,-329 -266,-595 -595,-595l0,-1z"
         class="fil21" />
      <path
         id="svg_215"
         d="m8666,4204.667206l-2883,0c-109,0 -198,89 -198,198l0,4999c0,109 89,198 198,198l2883,0c109,0 198,-89 198,-198l0,-4999c0,-109 -89,-198 -198,-198z"
         class="fil1" />
      <path
         id="svg_216"
         d="m7722,3724.667206l-996,0c-21,0 -37,17 -37,37c0,21 17,37 37,37l996,0c21,0 37,-17 37,-37c0,-21 -17,-37 -37,-37z"
         class="fil15" />
      <path
         id="svg_217"
         d="m8666,9631.667206c127,0 231,-104 231,-231l0,-4999c0,-127 -104,-231 -231,-231l-2883,0c-127,0 -231,104 -231,231l0,4999c0,127 104,231 231,231l2883,0z"
         class="fil1" />
      <path
         id="svg_218"
         d="m6474,8730.667206c0,184 -149,333 -333,333c-184,0 -333,-149 -333,-333c0,-184 149,-333 333,-333c184,0 333,149 333,333z"
         class="fil9" />
      <polygon
         id="svg_219"
         points="8716,8950.667205810547 6747,8950.667205810547 6747,8510.667205810547 8716,8510.667205810547 "
         class="fil9" />
      <polygon
         id="svg_220"
         points="5703,8195.667205810547 8745,8195.667205810547 8745,8159.667205810547 5703,8159.667205810547 "
         class="fil6" />
      <path
         id="svg_221"
         d="m6474,7495.667206c0,184 -149,333 -333,333c-184,0 -333,-149 -333,-333c0,-184 149,-333 333,-333c184,0 333,149 333,333z"
         class="fil9" />
      <polygon
         id="svg_222"
         points="8716,7716.667205810547 6747,7716.667205810547 6747,7275.667205810547 8716,7275.667205810547 "
         class="fil9" />
      <polygon
         id="svg_223"
         points="5703,6960.667205810547 8745,6960.667205810547 8745,6925.667205810547 5703,6925.667205810547 "
         class="fil6" />
      <path
         id="svg_224"
         d="m6474,6261.667206c0,184 -149,333 -333,333c-184,0 -333,-149 -333,-333c0,-184 149,-333 333,-333c184,0 333,149 333,333z"
         class="fil9" />
      <polygon
         id="svg_225"
         points="8716,6481.667205810547 6747,6481.667205810547 6747,6040.667205810547 8716,6040.667205810547 "
         class="fil9" />
      <polygon
         id="svg_226"
         points="5703,5725.667205810547 8745,5725.667205810547 8745,5690.667205810547 5703,5690.667205810547 "
         class="fil6" />
      <path
         id="svg_227"
         d="m6474,5026.667206c0,184 -149,333 -333,333c-184,0 -333,-149 -333,-333c0,-184 149,-333 333,-333c184,0 333,149 333,333z"
         class="fil9" />
      <polygon
         id="svg_228"
         points="8716,5246.667205810547 6747,5246.667205810547 6747,4806.667205810547 8716,4806.667205810547 "
         class="fil9" />
      <polygon
         id="svg_229"
         points="5703,4490.667205810547 8745,4490.667205810547 8745,4455.667205810547 5703,4455.667205810547 "
         class="fil6" />
      <polygon
         id="svg_230"
         points="5703,9375.667205810547 8745,9375.667205810547 8745,9339.667205810547 5703,9339.667205810547 "
         class="fil6" />
      <path
         id="svg_231"
         d="m6452,3433.667206l1991,0c329,0 595,266 595,595l0,2974l-142,113l0,-2714c0,-127 -104,-231 -231,-231l-1986,0l-228,-737l1,0zm2586,4486l0,61c-56,44 -96,74 -96,74c-17,13 -32,27 -46,41l0,-191c36,10 74,16 113,16c10,0 19,0 29,-1zm0,802l0,103c-108,134 -166,298 -49,450c16,20 32,38 49,53l0,447c0,329 -118,595 -446,595l0,0l-228,-737l301,0c127,0 231,-104 231,-231l0,-744c41,32 90,54 142,65l0,-1zm-2312,-4998c-21,0 -37,17 -37,37c0,21 17,37 37,37l996,0c21,0 37,-17 37,-37c0,-21 -17,-37 -37,-37l-996,0z"
         class="fil22" />
      <path
         id="svg_232"
         d="m7722,3798.667206l-996,0c-21,0 -37,-17 -37,-37c0,-21 17,-37 37,-37l996,0c21,0 37,17 37,37c0,21 -17,37 -37,37z"
         class="fil23" />
      <path
         id="svg_233"
         d="m8666,9631.667206l-301,0l-79,-257l460,0l0,-35l-470,0l-120,-389l562,0l0,-440l-697,0l-97,-315l824,0l0,-35l-835,0l-137,-444l890,0c10,17 21,34 34,50c54,70 122,116 199,139l0,191c-142,143 -170,358 -58,503c17,22 36,41 58,58l0,744c0,127 -104,231 -231,231l-2,-1zm52,-2337l0,-18l-1079,0l-97,-315l1205,0l0,-35l-1216,0l-137,-444l1324,0l0,-440l-1460,0l-97,-315l1586,0l0,-35l-1597,0l-137,-444l1705,0l0,-440l-1841,0l-97,-315l1967,0l0,-35l-1978,0l-88,-284l1986,0c127,0 231,104 231,231l0,2714l-12,9c-69,55 -126,111 -169,169l1,-3z"
         class="fil1" />
      <polygon
         id="svg_234"
         points="8716,8950.667205810547 8155,8950.667205810547 8019,8510.667205810547 8716,8510.667205810547 "
         class="fil24" />
      <polygon
         id="svg_235"
         points="8745,8195.667205810547 7921,8195.667205810547 7910,8159.667205810547 8745,8159.667205810547 "
         class="fil25" />
      <path
         id="svg_236"
         d="m8664,7716.667206l-890,0l-136,-440l1079,0l0,18c-105,140 -130,286 -53,422z"
         class="fil24" />
      <polygon
         id="svg_237"
         points="8745,6960.667205810547 7540,6960.667205810547 7529,6925.667205810547 8745,6925.667205810547 "
         class="fil25" />
      <polygon
         id="svg_238"
         points="8716,6481.667205810547 7393,6481.667205810547 7257,6040.667205810547 8716,6040.667205810547 "
         class="fil24" />
      <polygon
         id="svg_239"
         points="8745,5725.667205810547 7159,5725.667205810547 7148,5690.667205810547 8745,5690.667205810547 "
         class="fil25" />
      <polygon
         id="svg_240"
         points="8716,5246.667205810547 7011,5246.667205810547 6876,4806.667205810547 8716,4806.667205810547 "
         class="fil24" />
      <polygon
         id="svg_241"
         points="8745,4490.667205810547 6778,4490.667205810547 6767,4455.667205810547 8745,4455.667205810547 "
         class="fil25" />
      <polygon
         id="svg_242"
         points="8745,9375.667205810547 8286,9375.667205810547 8275,9339.667205810547 8745,9339.667205810547 "
         class="fil25" />
      <path
         id="svg_243"
         d="m8985,7800.667206c-1,-2 -3,-4 -4,-7c-30,-52 -61,-104 -91,-146c-34,-48 -82,-93 -129,-133c-20,-17 -30,-41 -30,-64c0,24 10,48 30,64c48,40 95,86 129,133c30,41 61,93 91,146c1,2 3,5 4,7z"
         class="fil18" />
      <path
         id="svg_244"
         d="m9355,8369.667206c0,0 0,0 0,0c-2,-14 -5,-28 -9,-41c4,14 7,28 9,41zm-10,-42c0,0 0,0 0,0c0,0 0,0 0,0zm0,-1c0,0 0,0 0,0c0,0 0,0 0,0zm0,-1l0,0z"
         class="fil18" />
      <path
         id="svg_245"
         d="m9072,9077.667206c0,0 0,0 0,0c0,0 0,0 0,0zm0,-1c-19,-45 -22,-87 1,-114c-23,28 -19,70 -1,114z"
         class="fil18" />
      <path
         id="svg_246"
         d="m6877,2515.667206l-3980,0c-261,0 -473,212 -473,473l0,1955c0,261 212,473 473,473l2819,0l888,758l0,-758l272,0c261,0 473,-212 473,-473l0,-1955c0,-261 -212,-473 -473,-473l1,0z"
         class="fil14"
         style="opacity:0.97;fill:#eeedee;fill-opacity:1" />
      <polygon
         id="svg_248"
         points="13549,8697.667205810547 13437,8794.667205810547 13351,8338.667205810547 13793,8540.667205810547 13659,8602.667205810547 13794,8765.667205810547 13678,8854.667205810547 "
         class="fil0" />
      <path
         id="svg_249"
         d="m13336,8320.667206l8,41l79,416l7,37l29,-25l88,-77l116,141l13,16l17,-13l98,-76l18,-14l-14,-17l-119,-143l100,-46l43,-20l-43,-20l-401,-183l-38,-18l-1,1zm30,36l401,183l-126,58l137,165l-98,76l-130,-158l-105,92l-79,-416z"
         class="fil1" />
      <defs
         id="defs4336">
        <path
           id="svg_261"
           d="m1257.87,639.92c0,340.94 -276.86,617.75 -617.87,617.75c-341.01,0 -617.87,-276.81 -617.87,-617.75c0,-340.95 276.86,-617.75 617.87,-617.75c341.01,0 617.87,276.8 617.87,617.75z" />
        <path
           id="svg_260"
           d="m945.03,171.81l-770.06,770.77l770.06,0l0,-770.77z" />
        <path
           id="svg_259"
           d="m626.54,791.95l150.48,150.63l-300.97,0l-300.95,0l150.46,-150.63l150.49,-150.63l150.49,150.63z" />
        <path
           id="svg_258"
           d="m626.6,490.67l150.42,-150.62l-0.02,301.28l-0.02,301.26l-150.4,-150.63l-150.4,-150.65l150.42,-150.64z" />
      </defs>
      <text
         xml:space="preserve"
         style="font-style:normal;font-weight:normal;font-size:337.81930542px;line-height:12.45000076;font-family:sans-serif;letter-spacing:26.51527023px;word-spacing:-15.46578884px;fill:#ffffff;fill-opacity:1;stroke:none;stroke-width:1.75947559"
         x="10979.451"
         y="8862.6016"
         id="text1421"
         transform="scale(1.0669966,0.93721009)"><tspan
           sodipodi:role="line"
           id="tspan1419"
           x="10979.451"
           y="8862.6016"
           style="font-size:337.81930542px;line-height:0;letter-spacing:30.96675873px;word-spacing:-24.52709198px;fill:#ffffff;stroke-width:1.75947559">LOGIN</tspan></text>
      <text
         xml:space="preserve"
         style="font-style:normal;font-weight:normal;font-size:367.26077271px;line-height:1.25;font-family:sans-serif;letter-spacing:8.20598221px;word-spacing:-25.45958519px;fill:#8a8889;fill-opacity:1;stroke:none;stroke-width:1.91281629"
         x="11175.415"
         y="5979.811"
         id="text1425"
         transform="scale(1.016419,0.98384624)"><tspan
           sodipodi:role="line"
           id="tspan1423"
           x="11175.415"
           y="5979.811"
           style="stroke-width:1.91281629">Username</tspan></text>
      <g
         id="g2263"
         transform="matrix(2.9745399,0,0,2.9745083,4232.8171,3219.8059)">
        <circle
           id="circle2253"
           r="247"
           cy="256"
           cx="256"
           class="st7"
           style="fill:#1e96c8" />
        <g
           id="g2261">
          <path
             id="path2255"
             d="m 360.8,159 c 0.3,-0.2 6.7,-3.1 12.4,0.7 4.4,3 6.5,8.7 5,14.2 -13.9,65.6 -27.9,131.2 -41.8,196.8 -0.1,0.8 -0.9,7.1 -6.6,10.5 -3.8,2.3 -8.6,2.6 -12.8,0.8 -1.1,-0.5 -2.2,-1.2 -3.2,-1.9 -33,-24.8 -66,-49.6 -99,-74.5 L 329.9,202.1 c 0.3,-0.5 1.6,-2.1 1.1,-3.1 -0.4,-0.8 -1.8,-1.1 -3.7,-0.8 -1.8,0.2 -3.5,0.9 -5,1.9 -47.3,29.8 -94.5,59.6 -141.8,89.4 L 116.2,270 c -2.7,-2 -6.5,-5.2 -6.2,-9 0.3,-3.5 4,-5.9 5.4,-6.8 C 127,247 314.7,176.3 360.8,159 Z"
             class="st1"
             inkscape:connector-curvature="0"
             style="fill:#ffffff" />
          <path
             id="path2257"
             d="m 214.8,305.7 -4.1,63.6 c 1.5,-0.1 3.7,-0.3 6.2,-1.4 3,-1.3 5,-3.2 6.1,-4.4 9.9,-9.8 19.8,-19.6 29.7,-29.4 z"
             class="st8"
             inkscape:connector-curvature="0"
             style="fill:#a9c9dd" />
          <path
             id="path2259"
             d="m 210.6,369.3 c -1.7,0 -3.7,-0.3 -5.3,-1.6 -1.9,-1.6 -2.5,-3.9 -2.6,-4.5 -1.1,-4.5 -9.9,-33.6 -22.2,-73.6 l 141.8,-89.4 c 0.6,-0.4 1.4,-0.9 2.5,-1.3 1.8,-0.7 5.2,-1.5 6.1,-0.2 0.4,0.5 0.2,1.3 0.1,1.6 0,0 -0.2,1 -1.1,1.9 -1.2,1.2 -49.4,44.5 -115.1,103.5 z"
             class="st9"
             inkscape:connector-curvature="0"
             style="fill:#c8daea" />
        </g>
      </g>
    </g>
  </g>
  <style
     id="style2251"
     type="text/css">
	.st0{fill:#25D366;}
	.st1{fill:#FFFFFF;}
	.st2{fill:#FF0000;}
	.st3{fill:#3D5A98;}
	.st4{fill:url(#SVGID_1_);}
	.st5{fill:url(#SVGID_2_);}
	.st6{fill:#55ADEE;}
	.st7{fill:#1E96C8;}
	.st8{fill:#A9C9DD;}
	.st9{fill:#C8DAEA;}
	.st10{fill:none;}
	.st11{fill:#4787F3;}
	.st12{fill:#DC483C;}
	.st13{fill:#FFCE43;}
	.st14{fill:#149F5C;}
	.st15{fill:#CE1E5B;}
	.st16{fill:#72C5CD;}
	.st17{fill:#DFA22F;}
	.st18{fill:#3CB187;}
	.st19{fill:#248C73;}
	.st20{fill:#392538;}
	.st21{fill:#BB242A;}
	.st22{fill:none;stroke:#3CB187;stroke-miterlimit:10;}
	.st23{fill:#009A57;}
	.st24{fill:#FCCD37;}
	.st25{fill:#2771F0;}
</style>
</svg>
