<?xml version="1.0" standalone="no"?>
<!DOCTYPE svg PUBLIC "-//W3C//DTD SVG 20010904//EN"
 "http://www.w3.org/TR/2001/REC-SVG-20010904/DTD/svg10.dtd">
<svg version="1.0" xmlns="http://www.w3.org/2000/svg"
 width="140.000000pt" height="140.000000pt" viewBox="0 0 140.000000 140.000000"
 preserveAspectRatio="xMidYMid meet">
<metadata>
Created by potrace 1.11, written by Peter Selinger 2001-2013
</metadata>
<g transform="translate(0.000000,140.000000) scale(0.100000,-0.100000)"
fill="#000000" stroke="none">
<path d="M555 1386 c-199 -46 -366 -169 -468 -346 -14 -25 -38 -81 -53 -125
-25 -71 -28 -95 -29 -210 0 -117 3 -139 29 -219 64 -196 219 -362 407 -435
182 -72 379 -67 553 14 172 81 312 239 372 421 26 80 29 102 29 219 -1 115 -4
139 -29 210 -77 223 -231 376 -451 451 -98 33 -264 42 -360 20z m518 -444 l57
-57 -245 -245 c-134 -134 -246 -242 -249 -240 -3 3 -86 86 -186 185 l-181 179
61 61 60 60 125 -125 125 -125 183 183 c100 100 184 182 187 182 3 0 31 -26
63 -58z"/>
</g>
</svg>
